<?xml version="1.0" encoding="UTF-8" standalone="no"?>
<!DOCTYPE svg PUBLIC "-//W3C//DTD SVG 1.1//EN"
 "http://www.w3.org/Graphics/SVG/1.1/DTD/svg11.dtd">
<!-- Generated by graphviz version 2.43.0 (0)
 -->
<!-- Title: godep Pages: 1 -->
<svg width="2608pt" height="608pt"
 viewBox="0.00 0.00 2608.00 608.00" xmlns="http://www.w3.org/2000/svg" xmlns:xlink="http://www.w3.org/1999/xlink">
<g id="graph0" class="graph" transform="scale(1 1) rotate(0) translate(4 604)">
<title>godep</title>
<polygon fill="white" stroke="transparent" points="-4,4 -4,-604 2604,-604 2604,4 -4,4"/>
<!-- . -->
<g id="node1" class="node">
<title>.</title>
<g id="a_node1"><a xlink:href="https://godoc.org/." xlink:title="." target="_blank">
<path fill="paleturquoise" stroke="paleturquoise" d="M1164,-600C1164,-600 1134,-600 1134,-600 1128,-600 1122,-594 1122,-588 1122,-588 1122,-576 1122,-576 1122,-570 1128,-564 1134,-564 1134,-564 1164,-564 1164,-564 1170,-564 1176,-570 1176,-576 1176,-576 1176,-588 1176,-588 1176,-594 1170,-600 1164,-600"/>
<text text-anchor="middle" x="1149" y="-578.3" font-family="Times,serif" font-size="14.00">.</text>
</a>
</g>
</g>
<!-- configuration -->
<g id="node2" class="node">
<title>configuration</title>
<g id="a_node2"><a xlink:href="https://godoc.org/configuration" xlink:title="configuration" target="_blank">
<path fill="paleturquoise" stroke="paleturquoise" d="M296.5,-506C296.5,-506 209.5,-506 209.5,-506 203.5,-506 197.5,-500 197.5,-494 197.5,-494 197.5,-482 197.5,-482 197.5,-476 203.5,-470 209.5,-470 209.5,-470 296.5,-470 296.5,-470 302.5,-470 308.5,-476 308.5,-482 308.5,-482 308.5,-494 308.5,-494 308.5,-500 302.5,-506 296.5,-506"/>
<text text-anchor="middle" x="253" y="-484.3" font-family="Times,serif" font-size="14.00">configuration</text>
</a>
</g>
</g>
<!-- .&#45;&gt;configuration -->
<g id="edge1" class="edge">
<title>.&#45;&gt;configuration</title>
<path fill="none" stroke="black" d="M1121.7,-588C971.53,-588 253,-588 253,-588 253,-588 253,-511.34 253,-511.34"/>
<polygon fill="black" stroke="black" points="254.75,-511.34 253,-506.34 251.25,-511.34 254.75,-511.34"/>
</g>
<!-- github.com/gofiber/fiber/v3 -->
<g id="node3" class="node">
<title>github.com/gofiber/fiber/v3</title>
<g id="a_node3"><a xlink:href="https://godoc.org/github.com/gofiber/fiber/v3" xlink:title="github.com/gofiber/fiber/v3" target="_blank">
<path fill="paleturquoise" stroke="paleturquoise" d="M1054.5,-412C1054.5,-412 867.5,-412 867.5,-412 861.5,-412 855.5,-406 855.5,-400 855.5,-400 855.5,-388 855.5,-388 855.5,-382 861.5,-376 867.5,-376 867.5,-376 1054.5,-376 1054.5,-376 1060.5,-376 1066.5,-382 1066.5,-388 1066.5,-388 1066.5,-400 1066.5,-400 1066.5,-406 1060.5,-412 1054.5,-412"/>
<text text-anchor="middle" x="961" y="-390.3" font-family="Times,serif" font-size="14.00">github.com/gofiber/fiber/v3</text>
</a>
</g>
</g>
<!-- .&#45;&gt;github.com/gofiber/fiber/v3 -->
<g id="edge2" class="edge">
<title>.&#45;&gt;github.com/gofiber/fiber/v3</title>
<path fill="none" stroke="black" d="M1147.33,-563.88C1147.33,-517.85 1147.33,-400 1147.33,-400 1147.33,-400 1071.69,-400 1071.69,-400"/>
<polygon fill="black" stroke="black" points="1071.69,-398.25 1066.69,-400 1071.69,-401.75 1071.69,-398.25"/>
</g>
<!-- github.com/gofiber/fiber/v3/middleware/helmet -->
<g id="node4" class="node">
<title>github.com/gofiber/fiber/v3/middleware/helmet</title>
<g id="a_node4"><a xlink:href="https://godoc.org/github.com/gofiber/fiber/v3/middleware/helmet" xlink:title="github.com/gofiber/fiber/v3/middleware/helmet" target="_blank">
<path fill="paleturquoise" stroke="paleturquoise" d="M1125.5,-506C1125.5,-506 796.5,-506 796.5,-506 790.5,-506 784.5,-500 784.5,-494 784.5,-494 784.5,-482 784.5,-482 784.5,-476 790.5,-470 796.5,-470 796.5,-470 1125.5,-470 1125.5,-470 1131.5,-470 1137.5,-476 1137.5,-482 1137.5,-482 1137.5,-494 1137.5,-494 1137.5,-500 1131.5,-506 1125.5,-506"/>
<text text-anchor="middle" x="961" y="-484.3" font-family="Times,serif" font-size="14.00">github.com/gofiber/fiber/v3/middleware/helmet</text>
</a>
</g>
</g>
<!-- .&#45;&gt;github.com/gofiber/fiber/v3/middleware/helmet -->
<g id="edge3" class="edge">
<title>.&#45;&gt;github.com/gofiber/fiber/v3/middleware/helmet</title>
<path fill="none" stroke="black" d="M1129.75,-563.88C1129.75,-563.88 1129.75,-511.07 1129.75,-511.07"/>
<polygon fill="black" stroke="black" points="1131.5,-511.07 1129.75,-506.07 1128,-511.07 1131.5,-511.07"/>
</g>
<!-- github.com/gofiber/fiber/v3/middleware/logger -->
<g id="node5" class="node">
<title>github.com/gofiber/fiber/v3/middleware/logger</title>
<g id="a_node5"><a xlink:href="https://godoc.org/github.com/gofiber/fiber/v3/middleware/logger" xlink:title="github.com/gofiber/fiber/v3/middleware/logger" target="_blank">
<path fill="paleturquoise" stroke="paleturquoise" d="M1876,-506C1876,-506 1550,-506 1550,-506 1544,-506 1538,-500 1538,-494 1538,-494 1538,-482 1538,-482 1538,-476 1544,-470 1550,-470 1550,-470 1876,-470 1876,-470 1882,-470 1888,-476 1888,-482 1888,-482 1888,-494 1888,-494 1888,-500 1882,-506 1876,-506"/>
<text text-anchor="middle" x="1713" y="-484.3" font-family="Times,serif" font-size="14.00">github.com/gofiber/fiber/v3/middleware/logger</text>
</a>
</g>
</g>
<!-- .&#45;&gt;github.com/gofiber/fiber/v3/middleware/logger -->
<g id="edge4" class="edge">
<title>.&#45;&gt;github.com/gofiber/fiber/v3/middleware/logger</title>
<path fill="none" stroke="black" d="M1176.2,-573C1288.86,-573 1713,-573 1713,-573 1713,-573 1713,-511.03 1713,-511.03"/>
<polygon fill="black" stroke="black" points="1714.75,-511.03 1713,-506.03 1711.25,-511.03 1714.75,-511.03"/>
</g>
<!-- github.com/gofiber/fiber/v3/middleware/pprof -->
<g id="node6" class="node">
<title>github.com/gofiber/fiber/v3/middleware/pprof</title>
<g id="a_node6"><a xlink:href="https://godoc.org/github.com/gofiber/fiber/v3/middleware/pprof" xlink:title="github.com/gofiber/fiber/v3/middleware/pprof" target="_blank">
<path fill="paleturquoise" stroke="paleturquoise" d="M1497,-506C1497,-506 1179,-506 1179,-506 1173,-506 1167,-500 1167,-494 1167,-494 1167,-482 1167,-482 1167,-476 1173,-470 1179,-470 1179,-470 1497,-470 1497,-470 1503,-470 1509,-476 1509,-482 1509,-482 1509,-494 1509,-494 1509,-500 1503,-506 1497,-506"/>
<text text-anchor="middle" x="1338" y="-484.3" font-family="Times,serif" font-size="14.00">github.com/gofiber/fiber/v3/middleware/pprof</text>
</a>
</g>
</g>
<!-- .&#45;&gt;github.com/gofiber/fiber/v3/middleware/pprof -->
<g id="edge5" class="edge">
<title>.&#45;&gt;github.com/gofiber/fiber/v3/middleware/pprof</title>
<path fill="none" stroke="black" d="M1171.5,-563.88C1171.5,-563.88 1171.5,-511.07 1171.5,-511.07"/>
<polygon fill="black" stroke="black" points="1173.25,-511.07 1171.5,-506.07 1169.75,-511.07 1173.25,-511.07"/>
</g>
<!-- github.com/gofiber/fiber/v3/middleware/recover -->
<g id="node7" class="node">
<title>github.com/gofiber/fiber/v3/middleware/recover</title>
<g id="a_node7"><a xlink:href="https://godoc.org/github.com/gofiber/fiber/v3/middleware/recover" xlink:title="github.com/gofiber/fiber/v3/middleware/recover" target="_blank">
<path fill="paleturquoise" stroke="paleturquoise" d="M684,-506C684,-506 350,-506 350,-506 344,-506 338,-500 338,-494 338,-494 338,-482 338,-482 338,-476 344,-470 350,-470 350,-470 684,-470 684,-470 690,-470 696,-476 696,-482 696,-482 696,-494 696,-494 696,-500 690,-506 684,-506"/>
<text text-anchor="middle" x="517" y="-484.3" font-family="Times,serif" font-size="14.00">github.com/gofiber/fiber/v3/middleware/recover</text>
</a>
</g>
</g>
<!-- .&#45;&gt;github.com/gofiber/fiber/v3/middleware/recover -->
<g id="edge6" class="edge">
<title>.&#45;&gt;github.com/gofiber/fiber/v3/middleware/recover</title>
<path fill="none" stroke="black" d="M1121.84,-576C1000.88,-576 517,-576 517,-576 517,-576 517,-511.23 517,-511.23"/>
<polygon fill="black" stroke="black" points="518.75,-511.23 517,-506.23 515.25,-511.23 518.75,-511.23"/>
</g>
<!-- github.com/joho/godotenv -->
<g id="node8" class="node">
<title>github.com/joho/godotenv</title>
<g id="a_node8"><a xlink:href="https://godoc.org/github.com/joho/godotenv" xlink:title="github.com/joho/godotenv" target="_blank">
<path fill="paleturquoise" stroke="paleturquoise" d="M2107,-506C2107,-506 1929,-506 1929,-506 1923,-506 1917,-500 1917,-494 1917,-494 1917,-482 1917,-482 1917,-476 1923,-470 1929,-470 1929,-470 2107,-470 2107,-470 2113,-470 2119,-476 2119,-482 2119,-482 2119,-494 2119,-494 2119,-500 2113,-506 2107,-506"/>
<text text-anchor="middle" x="2018" y="-484.3" font-family="Times,serif" font-size="14.00">github.com/joho/godotenv</text>
</a>
</g>
</g>
<!-- .&#45;&gt;github.com/joho/godotenv -->
<g id="edge7" class="edge">
<title>.&#45;&gt;github.com/joho/godotenv</title>
<path fill="none" stroke="black" d="M1176.44,-582C1324.16,-582 2018,-582 2018,-582 2018,-582 2018,-511.12 2018,-511.12"/>
<polygon fill="black" stroke="black" points="2019.75,-511.12 2018,-506.12 2016.25,-511.12 2019.75,-511.12"/>
</g>
<!-- github.com/samber/lo -->
<g id="node9" class="node">
<title>github.com/samber/lo</title>
<g id="a_node9"><a xlink:href="https://godoc.org/github.com/samber/lo" xlink:title="github.com/samber/lo" target="_blank">
<path fill="paleturquoise" stroke="paleturquoise" d="M2308,-506C2308,-506 2160,-506 2160,-506 2154,-506 2148,-500 2148,-494 2148,-494 2148,-482 2148,-482 2148,-476 2154,-470 2160,-470 2160,-470 2308,-470 2308,-470 2314,-470 2320,-476 2320,-482 2320,-482 2320,-494 2320,-494 2320,-500 2314,-506 2308,-506"/>
<text text-anchor="middle" x="2234" y="-484.3" font-family="Times,serif" font-size="14.00">github.com/samber/lo</text>
</a>
</g>
</g>
<!-- .&#45;&gt;github.com/samber/lo -->
<g id="edge8" class="edge">
<title>.&#45;&gt;github.com/samber/lo</title>
<path fill="none" stroke="black" d="M1176.09,-591C1343.86,-591 2234,-591 2234,-591 2234,-591 2234,-511.41 2234,-511.41"/>
<polygon fill="black" stroke="black" points="2235.75,-511.41 2234,-506.41 2232.25,-511.41 2235.75,-511.41"/>
</g>
<!-- github.com/caarlos0/env/v11 -->
<g id="node10" class="node">
<title>github.com/caarlos0/env/v11</title>
<g id="a_node10"><a xlink:href="https://godoc.org/github.com/caarlos0/env/v11" xlink:title="github.com/caarlos0/env/v11" target="_blank">
<path fill="paleturquoise" stroke="paleturquoise" d="M352,-412C352,-412 154,-412 154,-412 148,-412 142,-406 142,-400 142,-400 142,-388 142,-388 142,-382 148,-376 154,-376 154,-376 352,-376 352,-376 358,-376 364,-382 364,-388 364,-388 364,-400 364,-400 364,-406 358,-412 352,-412"/>
<text text-anchor="middle" x="253" y="-390.3" font-family="Times,serif" font-size="14.00">github.com/caarlos0/env/v11</text>
</a>
</g>
</g>
<!-- configuration&#45;&gt;github.com/caarlos0/env/v11 -->
<g id="edge9" class="edge">
<title>configuration&#45;&gt;github.com/caarlos0/env/v11</title>
<path fill="none" stroke="black" d="M253,-469.88C253,-469.88 253,-417.07 253,-417.07"/>
<polygon fill="black" stroke="black" points="254.75,-417.07 253,-412.07 251.25,-417.07 254.75,-417.07"/>
</g>
<!-- github.com/gofiber/fiber/v3/binder -->
<g id="node13" class="node">
<title>github.com/gofiber/fiber/v3/binder</title>
<g id="a_node13"><a xlink:href="https://godoc.org/github.com/gofiber/fiber/v3/binder" xlink:title="github.com/gofiber/fiber/v3/binder" target="_blank">
<path fill="paleturquoise" stroke="paleturquoise" d="M688,-318C688,-318 450,-318 450,-318 444,-318 438,-312 438,-306 438,-306 438,-294 438,-294 438,-288 444,-282 450,-282 450,-282 688,-282 688,-282 694,-282 700,-288 700,-294 700,-294 700,-306 700,-306 700,-312 694,-318 688,-318"/>
<text text-anchor="middle" x="569" y="-296.3" font-family="Times,serif" font-size="14.00">github.com/gofiber/fiber/v3/binder</text>
</a>
</g>
</g>
<!-- github.com/gofiber/fiber/v3&#45;&gt;github.com/gofiber/fiber/v3/binder -->
<g id="edge11" class="edge">
<title>github.com/gofiber/fiber/v3&#45;&gt;github.com/gofiber/fiber/v3/binder</title>
<path fill="none" stroke="black" d="M855.21,-383C751.86,-383 610,-383 610,-383 610,-383 610,-323.01 610,-323.01"/>
<polygon fill="black" stroke="black" points="611.75,-323.01 610,-318.01 608.25,-323.01 611.75,-323.01"/>
</g>
<!-- github.com/gofiber/fiber/v3/internal/schema -->
<g id="node14" class="node">
<title>github.com/gofiber/fiber/v3/internal/schema</title>
<g id="a_node14"><a xlink:href="https://godoc.org/github.com/gofiber/fiber/v3/internal/schema" xlink:title="github.com/gofiber/fiber/v3/internal/schema" target="_blank">
<path fill="paleturquoise" stroke="paleturquoise" d="M565,-224C565,-224 259,-224 259,-224 253,-224 247,-218 247,-212 247,-212 247,-200 247,-200 247,-194 253,-188 259,-188 259,-188 565,-188 565,-188 571,-188 577,-194 577,-200 577,-200 577,-212 577,-212 577,-218 571,-224 565,-224"/>
<text text-anchor="middle" x="412" y="-202.3" font-family="Times,serif" font-size="14.00">github.com/gofiber/fiber/v3/internal/schema</text>
</a>
</g>
</g>
<!-- github.com/gofiber/fiber/v3&#45;&gt;github.com/gofiber/fiber/v3/internal/schema -->
<g id="edge12" class="edge">
<title>github.com/gofiber/fiber/v3&#45;&gt;github.com/gofiber/fiber/v3/internal/schema</title>
<path fill="none" stroke="black" d="M855.4,-390C696.26,-390 413.33,-390 413.33,-390 413.33,-390 413.33,-229.32 413.33,-229.32"/>
<polygon fill="black" stroke="black" points="415.08,-229.32 413.33,-224.32 411.58,-229.32 415.08,-229.32"/>
</g>
<!-- github.com/gofiber/fiber/v3/log -->
<g id="node15" class="node">
<title>github.com/gofiber/fiber/v3/log</title>
<g id="a_node15"><a xlink:href="https://godoc.org/github.com/gofiber/fiber/v3/log" xlink:title="github.com/gofiber/fiber/v3/log" target="_blank">
<path fill="paleturquoise" stroke="paleturquoise" d="M954.5,-318C954.5,-318 741.5,-318 741.5,-318 735.5,-318 729.5,-312 729.5,-306 729.5,-306 729.5,-294 729.5,-294 729.5,-288 735.5,-282 741.5,-282 741.5,-282 954.5,-282 954.5,-282 960.5,-282 966.5,-288 966.5,-294 966.5,-294 966.5,-306 966.5,-306 966.5,-312 960.5,-318 954.5,-318"/>
<text text-anchor="middle" x="848" y="-296.3" font-family="Times,serif" font-size="14.00">github.com/gofiber/fiber/v3/log</text>
</a>
</g>
</g>
<!-- github.com/gofiber/fiber/v3&#45;&gt;github.com/gofiber/fiber/v3/log -->
<g id="edge13" class="edge">
<title>github.com/gofiber/fiber/v3&#45;&gt;github.com/gofiber/fiber/v3/log</title>
<path fill="none" stroke="black" d="M911,-375.88C911,-375.88 911,-323.07 911,-323.07"/>
<polygon fill="black" stroke="black" points="912.75,-323.07 911,-318.07 909.25,-323.07 912.75,-323.07"/>
</g>
<!-- github.com/gofiber/utils/v2 -->
<g id="node16" class="node">
<title>github.com/gofiber/utils/v2</title>
<g id="a_node16"><a xlink:href="https://godoc.org/github.com/gofiber/utils/v2" xlink:title="github.com/gofiber/utils/v2" target="_blank">
<path fill="paleturquoise" stroke="paleturquoise" d="M940.5,-224C940.5,-224 755.5,-224 755.5,-224 749.5,-224 743.5,-218 743.5,-212 743.5,-212 743.5,-200 743.5,-200 743.5,-194 749.5,-188 755.5,-188 755.5,-188 940.5,-188 940.5,-188 946.5,-188 952.5,-194 952.5,-200 952.5,-200 952.5,-212 952.5,-212 952.5,-218 946.5,-224 940.5,-224"/>
<text text-anchor="middle" x="848" y="-202.3" font-family="Times,serif" font-size="14.00">github.com/gofiber/utils/v2</text>
</a>
</g>
</g>
<!-- github.com/gofiber/fiber/v3&#45;&gt;github.com/gofiber/utils/v2 -->
<g id="edge14" class="edge">
<title>github.com/gofiber/fiber/v3&#45;&gt;github.com/gofiber/utils/v2</title>
<path fill="none" stroke="black" d="M980.79,-375.82C980.79,-327.05 980.79,-197 980.79,-197 980.79,-197 957.63,-197 957.63,-197"/>
<polygon fill="black" stroke="black" points="957.63,-195.25 952.63,-197 957.63,-198.75 957.63,-195.25"/>
</g>
<!-- github.com/google/uuid -->
<g id="node17" class="node">
<title>github.com/google/uuid</title>
<g id="a_node17"><a xlink:href="https://godoc.org/github.com/google/uuid" xlink:title="github.com/google/uuid" target="_blank">
<path fill="paleturquoise" stroke="paleturquoise" d="M897.5,-130C897.5,-130 736.5,-130 736.5,-130 730.5,-130 724.5,-124 724.5,-118 724.5,-118 724.5,-106 724.5,-106 724.5,-100 730.5,-94 736.5,-94 736.5,-94 897.5,-94 897.5,-94 903.5,-94 909.5,-100 909.5,-106 909.5,-106 909.5,-118 909.5,-118 909.5,-124 903.5,-130 897.5,-130"/>
<text text-anchor="middle" x="817" y="-108.3" font-family="Times,serif" font-size="14.00">github.com/google/uuid</text>
</a>
</g>
</g>
<!-- github.com/gofiber/fiber/v3&#45;&gt;github.com/google/uuid -->
<g id="edge15" class="edge">
<title>github.com/gofiber/fiber/v3&#45;&gt;github.com/google/uuid</title>
<path fill="none" stroke="black" d="M995.07,-375.98C995.07,-319.4 995.07,-149 995.07,-149 995.07,-149 854.17,-149 854.17,-149 854.17,-149 854.17,-135.07 854.17,-135.07"/>
<polygon fill="black" stroke="black" points="855.92,-135.07 854.17,-130.07 852.42,-135.07 855.92,-135.07"/>
</g>
<!-- github.com/mattn/go&#45;colorable -->
<g id="node18" class="node">
<title>github.com/mattn/go&#45;colorable</title>
<g id="a_node18"><a xlink:href="https://godoc.org/github.com/mattn/go-colorable" xlink:title="github.com/mattn/go&#45;colorable" target="_blank">
<path fill="paleturquoise" stroke="paleturquoise" d="M1657,-318C1657,-318 1445,-318 1445,-318 1439,-318 1433,-312 1433,-306 1433,-306 1433,-294 1433,-294 1433,-288 1439,-282 1445,-282 1445,-282 1657,-282 1657,-282 1663,-282 1669,-288 1669,-294 1669,-294 1669,-306 1669,-306 1669,-312 1663,-318 1657,-318"/>
<text text-anchor="middle" x="1551" y="-296.3" font-family="Times,serif" font-size="14.00">github.com/mattn/go&#45;colorable</text>
</a>
</g>
</g>
<!-- github.com/gofiber/fiber/v3&#45;&gt;github.com/mattn/go&#45;colorable -->
<g id="edge16" class="edge">
<title>github.com/gofiber/fiber/v3&#45;&gt;github.com/mattn/go&#45;colorable</title>
<path fill="none" stroke="black" d="M1052.21,-375.88C1052.21,-348.56 1052.21,-300 1052.21,-300 1052.21,-300 1427.79,-300 1427.79,-300"/>
<polygon fill="black" stroke="black" points="1427.79,-301.75 1432.79,-300 1427.79,-298.25 1427.79,-301.75"/>
</g>
<!-- github.com/mattn/go&#45;isatty -->
<g id="node19" class="node">
<title>github.com/mattn/go&#45;isatty</title>
<g id="a_node19"><a xlink:href="https://godoc.org/github.com/mattn/go-isatty" xlink:title="github.com/mattn/go&#45;isatty" target="_blank">
<path fill="paleturquoise" stroke="paleturquoise" d="M1801.5,-224C1801.5,-224 1614.5,-224 1614.5,-224 1608.5,-224 1602.5,-218 1602.5,-212 1602.5,-212 1602.5,-200 1602.5,-200 1602.5,-194 1608.5,-188 1614.5,-188 1614.5,-188 1801.5,-188 1801.5,-188 1807.5,-188 1813.5,-194 1813.5,-200 1813.5,-200 1813.5,-212 1813.5,-212 1813.5,-218 1807.5,-224 1801.5,-224"/>
<text text-anchor="middle" x="1708" y="-202.3" font-family="Times,serif" font-size="14.00">github.com/mattn/go&#45;isatty</text>
</a>
</g>
</g>
<!-- github.com/gofiber/fiber/v3&#45;&gt;github.com/mattn/go&#45;isatty -->
<g id="edge17" class="edge">
<title>github.com/gofiber/fiber/v3&#45;&gt;github.com/mattn/go&#45;isatty</title>
<path fill="none" stroke="black" d="M1037.93,-375.86C1037.93,-337.77 1037.93,-253 1037.93,-253 1037.93,-253 1624.67,-253 1624.67,-253 1624.67,-253 1624.67,-229.04 1624.67,-229.04"/>
<polygon fill="black" stroke="black" points="1626.42,-229.04 1624.67,-224.04 1622.92,-229.04 1626.42,-229.04"/>
</g>
<!-- github.com/valyala/bytebufferpool -->
<g id="node20" class="node">
<title>github.com/valyala/bytebufferpool</title>
<g id="a_node20"><a xlink:href="https://godoc.org/github.com/valyala/bytebufferpool" xlink:title="github.com/valyala/bytebufferpool" target="_blank">
<path fill="paleturquoise" stroke="paleturquoise" d="M1162,-36C1162,-36 926,-36 926,-36 920,-36 914,-30 914,-24 914,-24 914,-12 914,-12 914,-6 920,0 926,0 926,0 1162,0 1162,0 1168,0 1174,-6 1174,-12 1174,-12 1174,-24 1174,-24 1174,-30 1168,-36 1162,-36"/>
<text text-anchor="middle" x="1044" y="-14.3" font-family="Times,serif" font-size="14.00">github.com/valyala/bytebufferpool</text>
</a>
</g>
</g>
<!-- github.com/gofiber/fiber/v3&#45;&gt;github.com/valyala/bytebufferpool -->
<g id="edge18" class="edge">
<title>github.com/gofiber/fiber/v3&#45;&gt;github.com/valyala/bytebufferpool</title>
<path fill="none" stroke="black" d="M1009.36,-375.66C1009.36,-317.19 1009.36,-139 1009.36,-139 1009.36,-139 930.33,-139 930.33,-139 930.33,-139 930.33,-41.11 930.33,-41.11"/>
<polygon fill="black" stroke="black" points="932.08,-41.11 930.33,-36.11 928.58,-41.11 932.08,-41.11"/>
</g>
<!-- github.com/valyala/fasthttp -->
<g id="node21" class="node">
<title>github.com/valyala/fasthttp</title>
<g id="a_node21"><a xlink:href="https://godoc.org/github.com/valyala/fasthttp" xlink:title="github.com/valyala/fasthttp" target="_blank">
<path fill="paleturquoise" stroke="paleturquoise" d="M1561.5,-224C1561.5,-224 1372.5,-224 1372.5,-224 1366.5,-224 1360.5,-218 1360.5,-212 1360.5,-212 1360.5,-200 1360.5,-200 1360.5,-194 1366.5,-188 1372.5,-188 1372.5,-188 1561.5,-188 1561.5,-188 1567.5,-188 1573.5,-194 1573.5,-200 1573.5,-200 1573.5,-212 1573.5,-212 1573.5,-218 1567.5,-224 1561.5,-224"/>
<text text-anchor="middle" x="1467" y="-202.3" font-family="Times,serif" font-size="14.00">github.com/valyala/fasthttp</text>
</a>
</g>
</g>
<!-- github.com/gofiber/fiber/v3&#45;&gt;github.com/valyala/fasthttp -->
<g id="edge19" class="edge">
<title>github.com/gofiber/fiber/v3&#45;&gt;github.com/valyala/fasthttp</title>
<path fill="none" stroke="black" d="M1023.64,-375.85C1023.64,-330.34 1023.64,-215 1023.64,-215 1023.64,-215 1355.24,-215 1355.24,-215"/>
<polygon fill="black" stroke="black" points="1355.24,-216.75 1360.24,-215 1355.24,-213.25 1355.24,-216.75"/>
</g>
<!-- github.com/valyala/fasthttp/reuseport -->
<g id="node22" class="node">
<title>github.com/valyala/fasthttp/reuseport</title>
<g id="a_node22"><a xlink:href="https://godoc.org/github.com/valyala/fasthttp/reuseport" xlink:title="github.com/valyala/fasthttp/reuseport" target="_blank">
<path fill="paleturquoise" stroke="paleturquoise" d="M297.5,-318C297.5,-318 34.5,-318 34.5,-318 28.5,-318 22.5,-312 22.5,-306 22.5,-306 22.5,-294 22.5,-294 22.5,-288 28.5,-282 34.5,-282 34.5,-282 297.5,-282 297.5,-282 303.5,-282 309.5,-288 309.5,-294 309.5,-294 309.5,-306 309.5,-306 309.5,-312 303.5,-318 297.5,-318"/>
<text text-anchor="middle" x="166" y="-296.3" font-family="Times,serif" font-size="14.00">github.com/valyala/fasthttp/reuseport</text>
</a>
</g>
</g>
<!-- github.com/gofiber/fiber/v3&#45;&gt;github.com/valyala/fasthttp/reuseport -->
<g id="edge20" class="edge">
<title>github.com/gofiber/fiber/v3&#45;&gt;github.com/valyala/fasthttp/reuseport</title>
<path fill="none" stroke="black" d="M855.36,-397C689.99,-397 388.67,-397 388.67,-397 388.67,-397 388.67,-300 388.67,-300 388.67,-300 314.54,-300 314.54,-300"/>
<polygon fill="black" stroke="black" points="314.54,-298.25 309.54,-300 314.54,-301.75 314.54,-298.25"/>
</g>
<!-- github.com/gofiber/fiber/v3/middleware/helmet&#45;&gt;github.com/gofiber/fiber/v3 -->
<g id="edge27" class="edge">
<title>github.com/gofiber/fiber/v3/middleware/helmet&#45;&gt;github.com/gofiber/fiber/v3</title>
<path fill="none" stroke="black" d="M925.83,-469.88C925.83,-469.88 925.83,-417.07 925.83,-417.07"/>
<polygon fill="black" stroke="black" points="927.58,-417.07 925.83,-412.07 924.08,-417.07 927.58,-417.07"/>
</g>
<!-- github.com/gofiber/fiber/v3/middleware/logger&#45;&gt;github.com/gofiber/fiber/v3 -->
<g id="edge28" class="edge">
<title>github.com/gofiber/fiber/v3/middleware/logger&#45;&gt;github.com/gofiber/fiber/v3</title>
<path fill="none" stroke="black" d="M1570.75,-469.96C1570.75,-456.71 1570.75,-441 1570.75,-441 1570.75,-441 996.17,-441 996.17,-441 996.17,-441 996.17,-417.04 996.17,-417.04"/>
<polygon fill="black" stroke="black" points="997.92,-417.04 996.17,-412.04 994.42,-417.04 997.92,-417.04"/>
</g>
<!-- github.com/gofiber/fiber/v3/middleware/logger&#45;&gt;github.com/gofiber/utils/v2 -->
<g id="edge29" class="edge">
<title>github.com/gofiber/fiber/v3/middleware/logger&#45;&gt;github.com/gofiber/utils/v2</title>
<path fill="none" stroke="black" d="M1717.17,-469.91C1717.17,-417.13 1717.17,-267 1717.17,-267 1717.17,-267 882.83,-267 882.83,-267 882.83,-267 882.83,-229.3 882.83,-229.3"/>
<polygon fill="black" stroke="black" points="884.58,-229.3 882.83,-224.3 881.08,-229.3 884.58,-229.3"/>
</g>
<!-- github.com/gofiber/fiber/v3/middleware/logger&#45;&gt;github.com/mattn/go&#45;colorable -->
<g id="edge30" class="edge">
<title>github.com/gofiber/fiber/v3/middleware/logger&#45;&gt;github.com/mattn/go&#45;colorable</title>
<path fill="none" stroke="black" d="M1636.25,-469.97C1636.25,-469.97 1636.25,-323.25 1636.25,-323.25"/>
<polygon fill="black" stroke="black" points="1638,-323.25 1636.25,-318.25 1634.5,-323.25 1638,-323.25"/>
</g>
<!-- github.com/gofiber/fiber/v3/middleware/logger&#45;&gt;github.com/mattn/go&#45;isatty -->
<g id="edge31" class="edge">
<title>github.com/gofiber/fiber/v3/middleware/logger&#45;&gt;github.com/mattn/go&#45;isatty</title>
<path fill="none" stroke="black" d="M1765.33,-469.93C1765.33,-469.93 1765.33,-229.28 1765.33,-229.28"/>
<polygon fill="black" stroke="black" points="1767.08,-229.28 1765.33,-224.28 1763.58,-229.28 1767.08,-229.28"/>
</g>
<!-- github.com/gofiber/fiber/v3/middleware/logger&#45;&gt;github.com/valyala/bytebufferpool -->
<g id="edge32" class="edge">
<title>github.com/gofiber/fiber/v3/middleware/logger&#45;&gt;github.com/valyala/bytebufferpool</title>
<path fill="none" stroke="black" d="M1881,-469.94C1881,-390.26 1881,-74 1881,-74 1881,-74 1056.25,-74 1056.25,-74 1056.25,-74 1056.25,-41.03 1056.25,-41.03"/>
<polygon fill="black" stroke="black" points="1058,-41.03 1056.25,-36.03 1054.5,-41.03 1058,-41.03"/>
</g>
<!-- github.com/gofiber/fiber/v3/middleware/logger&#45;&gt;github.com/valyala/fasthttp -->
<g id="edge33" class="edge">
<title>github.com/gofiber/fiber/v3/middleware/logger&#45;&gt;github.com/valyala/fasthttp</title>
<path fill="none" stroke="black" d="M1603.5,-469.86C1603.5,-431.77 1603.5,-347 1603.5,-347 1603.5,-347 1414.88,-347 1414.88,-347 1414.88,-347 1414.88,-229.14 1414.88,-229.14"/>
<polygon fill="black" stroke="black" points="1416.63,-229.14 1414.88,-224.14 1413.13,-229.14 1416.63,-229.14"/>
</g>
<!-- github.com/gofiber/fiber/v3/middleware/pprof&#45;&gt;github.com/gofiber/fiber/v3 -->
<g id="edge34" class="edge">
<title>github.com/gofiber/fiber/v3/middleware/pprof&#45;&gt;github.com/gofiber/fiber/v3</title>
<path fill="none" stroke="black" d="M1166.89,-488C1160.74,-488 1157.17,-488 1157.17,-488 1157.17,-488 1157.17,-388 1157.17,-388 1157.17,-388 1071.55,-388 1071.55,-388"/>
<polygon fill="black" stroke="black" points="1071.55,-386.25 1066.55,-388 1071.55,-389.75 1071.55,-386.25"/>
</g>
<!-- github.com/valyala/fasthttp/fasthttpadaptor -->
<g id="node23" class="node">
<title>github.com/valyala/fasthttp/fasthttpadaptor</title>
<g id="a_node23"><a xlink:href="https://godoc.org/github.com/valyala/fasthttp/fasthttpadaptor" xlink:title="github.com/valyala/fasthttp/fasthttpadaptor" target="_blank">
<path fill="paleturquoise" stroke="paleturquoise" d="M1491,-412C1491,-412 1185,-412 1185,-412 1179,-412 1173,-406 1173,-400 1173,-400 1173,-388 1173,-388 1173,-382 1179,-376 1185,-376 1185,-376 1491,-376 1491,-376 1497,-376 1503,-382 1503,-388 1503,-388 1503,-400 1503,-400 1503,-406 1497,-412 1491,-412"/>
<text text-anchor="middle" x="1338" y="-390.3" font-family="Times,serif" font-size="14.00">github.com/valyala/fasthttp/fasthttpadaptor</text>
</a>
</g>
</g>
<!-- github.com/gofiber/fiber/v3/middleware/pprof&#45;&gt;github.com/valyala/fasthttp/fasthttpadaptor -->
<g id="edge35" class="edge">
<title>github.com/gofiber/fiber/v3/middleware/pprof&#45;&gt;github.com/valyala/fasthttp/fasthttpadaptor</title>
<path fill="none" stroke="black" d="M1338,-469.88C1338,-469.88 1338,-417.07 1338,-417.07"/>
<polygon fill="black" stroke="black" points="1339.75,-417.07 1338,-412.07 1336.25,-417.07 1339.75,-417.07"/>
</g>
<!-- github.com/gofiber/fiber/v3/middleware/recover&#45;&gt;github.com/gofiber/fiber/v3 -->
<g id="edge36" class="edge">
<title>github.com/gofiber/fiber/v3/middleware/recover&#45;&gt;github.com/gofiber/fiber/v3</title>
<path fill="none" stroke="black" d="M524,-469.77C524,-445.07 524,-404 524,-404 524,-404 850.49,-404 850.49,-404"/>
<polygon fill="black" stroke="black" points="850.49,-405.75 855.49,-404 850.49,-402.25 850.49,-405.75"/>
</g>
<!-- github.com/andybalholm/brotli -->
<g id="node11" class="node">
<title>github.com/andybalholm/brotli</title>
<g id="a_node11"><a xlink:href="https://godoc.org/github.com/andybalholm/brotli" xlink:title="github.com/andybalholm/brotli" target="_blank">
<path fill="paleturquoise" stroke="paleturquoise" d="M1862,-130C1862,-130 1650,-130 1650,-130 1644,-130 1638,-124 1638,-118 1638,-118 1638,-106 1638,-106 1638,-100 1644,-94 1650,-94 1650,-94 1862,-94 1862,-94 1868,-94 1874,-100 1874,-106 1874,-106 1874,-118 1874,-118 1874,-124 1868,-130 1862,-130"/>
<text text-anchor="middle" x="1756" y="-108.3" font-family="Times,serif" font-size="14.00">github.com/andybalholm/brotli</text>
</a>
</g>
</g>
<!-- github.com/andybalholm/brotli/matchfinder -->
<g id="node12" class="node">
<title>github.com/andybalholm/brotli/matchfinder</title>
<g id="a_node12"><a xlink:href="https://godoc.org/github.com/andybalholm/brotli/matchfinder" xlink:title="github.com/andybalholm/brotli/matchfinder" target="_blank">
<path fill="paleturquoise" stroke="paleturquoise" d="M1907.5,-36C1907.5,-36 1604.5,-36 1604.5,-36 1598.5,-36 1592.5,-30 1592.5,-24 1592.5,-24 1592.5,-12 1592.5,-12 1592.5,-6 1598.5,0 1604.5,0 1604.5,0 1907.5,0 1907.5,0 1913.5,0 1919.5,-6 1919.5,-12 1919.5,-12 1919.5,-24 1919.5,-24 1919.5,-30 1913.5,-36 1907.5,-36"/>
<text text-anchor="middle" x="1756" y="-14.3" font-family="Times,serif" font-size="14.00">github.com/andybalholm/brotli/matchfinder</text>
</a>
</g>
</g>
<!-- github.com/andybalholm/brotli&#45;&gt;github.com/andybalholm/brotli/matchfinder -->
<g id="edge10" class="edge">
<title>github.com/andybalholm/brotli&#45;&gt;github.com/andybalholm/brotli/matchfinder</title>
<path fill="none" stroke="black" d="M1756,-93.88C1756,-93.88 1756,-41.07 1756,-41.07"/>
<polygon fill="black" stroke="black" points="1757.75,-41.07 1756,-36.07 1754.25,-41.07 1757.75,-41.07"/>
</g>
<!-- github.com/gofiber/fiber/v3/binder&#45;&gt;github.com/gofiber/fiber/v3/internal/schema -->
<g id="edge21" class="edge">
<title>github.com/gofiber/fiber/v3/binder&#45;&gt;github.com/gofiber/fiber/v3/internal/schema</title>
<path fill="none" stroke="black" d="M507.5,-281.88C507.5,-281.88 507.5,-229.07 507.5,-229.07"/>
<polygon fill="black" stroke="black" points="509.25,-229.07 507.5,-224.07 505.75,-229.07 509.25,-229.07"/>
</g>
<!-- github.com/gofiber/fiber/v3/binder&#45;&gt;github.com/gofiber/utils/v2 -->
<g id="edge22" class="edge">
<title>github.com/gofiber/fiber/v3/binder&#45;&gt;github.com/gofiber/utils/v2</title>
<path fill="none" stroke="black" d="M669.25,-281.88C669.25,-254.56 669.25,-206 669.25,-206 669.25,-206 738.24,-206 738.24,-206"/>
<polygon fill="black" stroke="black" points="738.24,-207.75 743.24,-206 738.24,-204.25 738.24,-207.75"/>
</g>
<!-- github.com/gofiber/fiber/v3/binder&#45;&gt;github.com/valyala/bytebufferpool -->
<g id="edge23" class="edge">
<title>github.com/gofiber/fiber/v3/binder&#45;&gt;github.com/valyala/bytebufferpool</title>
<path fill="none" stroke="black" d="M638.5,-281.93C638.5,-219.69 638.5,-18 638.5,-18 638.5,-18 908.74,-18 908.74,-18"/>
<polygon fill="black" stroke="black" points="908.74,-19.75 913.74,-18 908.74,-16.25 908.74,-19.75"/>
</g>
<!-- github.com/gofiber/fiber/v3/binder&#45;&gt;github.com/valyala/fasthttp -->
<g id="edge24" class="edge">
<title>github.com/gofiber/fiber/v3/binder&#45;&gt;github.com/valyala/fasthttp</title>
<path fill="none" stroke="black" d="M607.75,-281.73C607.75,-263.44 607.75,-238 607.75,-238 607.75,-238 1378.62,-238 1378.62,-238 1378.62,-238 1378.62,-229.24 1378.62,-229.24"/>
<polygon fill="black" stroke="black" points="1380.38,-229.24 1378.62,-224.24 1376.88,-229.24 1380.38,-229.24"/>
</g>
<!-- github.com/gofiber/fiber/v3/log&#45;&gt;github.com/gofiber/utils/v2 -->
<g id="edge25" class="edge">
<title>github.com/gofiber/fiber/v3/log&#45;&gt;github.com/gofiber/utils/v2</title>
<path fill="none" stroke="black" d="M813.17,-281.88C813.17,-281.88 813.17,-229.07 813.17,-229.07"/>
<polygon fill="black" stroke="black" points="814.92,-229.07 813.17,-224.07 811.42,-229.07 814.92,-229.07"/>
</g>
<!-- github.com/gofiber/fiber/v3/log&#45;&gt;github.com/valyala/bytebufferpool -->
<g id="edge26" class="edge">
<title>github.com/gofiber/fiber/v3/log&#45;&gt;github.com/valyala/bytebufferpool</title>
<path fill="none" stroke="black" d="M959.5,-281.86C959.5,-243.77 959.5,-159 959.5,-159 959.5,-159 922.17,-159 922.17,-159 922.17,-159 922.17,-41.14 922.17,-41.14"/>
<polygon fill="black" stroke="black" points="923.92,-41.14 922.17,-36.14 920.42,-41.14 923.92,-41.14"/>
</g>
<!-- github.com/gofiber/utils/v2&#45;&gt;github.com/google/uuid -->
<g id="edge37" class="edge">
<title>github.com/gofiber/utils/v2&#45;&gt;github.com/google/uuid</title>
<path fill="none" stroke="black" d="M798.83,-187.88C798.83,-187.88 798.83,-135.07 798.83,-135.07"/>
<polygon fill="black" stroke="black" points="800.58,-135.07 798.83,-130.07 797.08,-135.07 800.58,-135.07"/>
</g>
<!-- github.com/mattn/go&#45;colorable&#45;&gt;github.com/mattn/go&#45;isatty -->
<g id="edge40" class="edge">
<title>github.com/mattn/go&#45;colorable&#45;&gt;github.com/mattn/go&#45;isatty</title>
<path fill="none" stroke="black" d="M1646.83,-281.88C1646.83,-281.88 1646.83,-229.07 1646.83,-229.07"/>
<polygon fill="black" stroke="black" points="1648.58,-229.07 1646.83,-224.07 1645.08,-229.07 1648.58,-229.07"/>
</g>
<!-- github.com/valyala/fasthttp&#45;&gt;github.com/andybalholm/brotli -->
<g id="edge41" class="edge">
<title>github.com/valyala/fasthttp&#45;&gt;github.com/andybalholm/brotli</title>
<path fill="none" stroke="black" d="M1569.5,-187.88C1569.5,-160.56 1569.5,-112 1569.5,-112 1569.5,-112 1632.89,-112 1632.89,-112"/>
<polygon fill="black" stroke="black" points="1632.89,-113.75 1637.89,-112 1632.89,-110.25 1632.89,-113.75"/>
</g>
<!-- github.com/valyala/fasthttp&#45;&gt;github.com/valyala/bytebufferpool -->
<g id="edge45" class="edge">
<title>github.com/valyala/fasthttp&#45;&gt;github.com/valyala/bytebufferpool</title>
<path fill="none" stroke="black" d="M1553.5,-187.75C1553.5,-139.46 1553.5,-12 1553.5,-12 1553.5,-12 1179.22,-12 1179.22,-12"/>
<polygon fill="black" stroke="black" points="1179.22,-10.25 1174.22,-12 1179.22,-13.75 1179.22,-10.25"/>
</g>
<!-- github.com/klauspost/compress/flate -->
<g id="node24" class="node">
<title>github.com/klauspost/compress/flate</title>
<g id="a_node24"><a xlink:href="https://godoc.org/github.com/klauspost/compress/flate" xlink:title="github.com/klauspost/compress/flate" target="_blank">
<path fill="paleturquoise" stroke="paleturquoise" d="M2287,-36C2287,-36 2033,-36 2033,-36 2027,-36 2021,-30 2021,-24 2021,-24 2021,-12 2021,-12 2021,-6 2027,0 2033,0 2033,0 2287,0 2287,0 2293,0 2299,-6 2299,-12 2299,-12 2299,-24 2299,-24 2299,-30 2293,-36 2287,-36"/>
<text text-anchor="middle" x="2160" y="-14.3" font-family="Times,serif" font-size="14.00">github.com/klauspost/compress/flate</text>
</a>
</g>
</g>
<!-- github.com/valyala/fasthttp&#45;&gt;github.com/klauspost/compress/flate -->
<g id="edge42" class="edge">
<title>github.com/valyala/fasthttp&#45;&gt;github.com/klauspost/compress/flate</title>
<path fill="none" stroke="black" d="M1557.5,-187.79C1557.5,-147.62 1557.5,-55 1557.5,-55 1557.5,-55 2113.83,-55 2113.83,-55 2113.83,-55 2113.83,-41.07 2113.83,-41.07"/>
<polygon fill="black" stroke="black" points="2115.58,-41.07 2113.83,-36.07 2112.08,-41.07 2115.58,-41.07"/>
</g>
<!-- github.com/klauspost/compress/gzip -->
<g id="node25" class="node">
<title>github.com/klauspost/compress/gzip</title>
<g id="a_node25"><a xlink:href="https://godoc.org/github.com/klauspost/compress/gzip" xlink:title="github.com/klauspost/compress/gzip" target="_blank">
<path fill="paleturquoise" stroke="paleturquoise" d="M2286.5,-130C2286.5,-130 2033.5,-130 2033.5,-130 2027.5,-130 2021.5,-124 2021.5,-118 2021.5,-118 2021.5,-106 2021.5,-106 2021.5,-100 2027.5,-94 2033.5,-94 2033.5,-94 2286.5,-94 2286.5,-94 2292.5,-94 2298.5,-100 2298.5,-106 2298.5,-106 2298.5,-118 2298.5,-118 2298.5,-124 2292.5,-130 2286.5,-130"/>
<text text-anchor="middle" x="2160" y="-108.3" font-family="Times,serif" font-size="14.00">github.com/klauspost/compress/gzip</text>
</a>
</g>
</g>
<!-- github.com/valyala/fasthttp&#45;&gt;github.com/klauspost/compress/gzip -->
<g id="edge43" class="edge">
<title>github.com/valyala/fasthttp&#45;&gt;github.com/klauspost/compress/gzip</title>
<path fill="none" stroke="black" d="M1561.5,-187.89C1561.5,-178.1 1561.5,-168 1561.5,-168 1561.5,-168 2070.25,-168 2070.25,-168 2070.25,-168 2070.25,-135.03 2070.25,-135.03"/>
<polygon fill="black" stroke="black" points="2072,-135.03 2070.25,-130.03 2068.5,-135.03 2072,-135.03"/>
</g>
<!-- github.com/klauspost/compress/zlib -->
<g id="node26" class="node">
<title>github.com/klauspost/compress/zlib</title>
<g id="a_node26"><a xlink:href="https://godoc.org/github.com/klauspost/compress/zlib" xlink:title="github.com/klauspost/compress/zlib" target="_blank">
<path fill="paleturquoise" stroke="paleturquoise" d="M2588,-130C2588,-130 2340,-130 2340,-130 2334,-130 2328,-124 2328,-118 2328,-118 2328,-106 2328,-106 2328,-100 2334,-94 2340,-94 2340,-94 2588,-94 2588,-94 2594,-94 2600,-100 2600,-106 2600,-106 2600,-118 2600,-118 2600,-124 2594,-130 2588,-130"/>
<text text-anchor="middle" x="2464" y="-108.3" font-family="Times,serif" font-size="14.00">github.com/klauspost/compress/zlib</text>
</a>
</g>
</g>
<!-- github.com/valyala/fasthttp&#45;&gt;github.com/klauspost/compress/zlib -->
<g id="edge44" class="edge">
<title>github.com/valyala/fasthttp&#45;&gt;github.com/klauspost/compress/zlib</title>
<path fill="none" stroke="black" d="M1565.5,-187.79C1565.5,-182.45 1565.5,-178 1565.5,-178 1565.5,-178 2464,-178 2464,-178 2464,-178 2464,-135.03 2464,-135.03"/>
<polygon fill="black" stroke="black" points="2465.75,-135.03 2464,-130.03 2462.25,-135.03 2465.75,-135.03"/>
</g>
<!-- github.com/valyala/fasthttp/fasthttputil -->
<g id="node27" class="node">
<title>github.com/valyala/fasthttp/fasthttputil</title>
<g id="a_node27"><a xlink:href="https://godoc.org/github.com/valyala/fasthttp/fasthttputil" xlink:title="github.com/valyala/fasthttp/fasthttputil" target="_blank">
<path fill="paleturquoise" stroke="paleturquoise" d="M1225.5,-130C1225.5,-130 950.5,-130 950.5,-130 944.5,-130 938.5,-124 938.5,-118 938.5,-118 938.5,-106 938.5,-106 938.5,-100 944.5,-94 950.5,-94 950.5,-94 1225.5,-94 1225.5,-94 1231.5,-94 1237.5,-100 1237.5,-106 1237.5,-106 1237.5,-118 1237.5,-118 1237.5,-124 1231.5,-130 1225.5,-130"/>
<text text-anchor="middle" x="1088" y="-108.3" font-family="Times,serif" font-size="14.00">github.com/valyala/fasthttp/fasthttputil</text>
</a>
</g>
</g>
<!-- github.com/valyala/fasthttp&#45;&gt;github.com/valyala/fasthttp/fasthttputil -->
<g id="edge46" class="edge">
<title>github.com/valyala/fasthttp&#45;&gt;github.com/valyala/fasthttp/fasthttputil</title>
<path fill="none" stroke="black" d="M1360.16,-206C1287.78,-206 1205.25,-206 1205.25,-206 1205.25,-206 1205.25,-135.12 1205.25,-135.12"/>
<polygon fill="black" stroke="black" points="1207,-135.12 1205.25,-130.12 1203.5,-135.12 1207,-135.12"/>
</g>
<!-- github.com/valyala/fasthttp/stackless -->
<g id="node28" class="node">
<title>github.com/valyala/fasthttp/stackless</title>
<g id="a_node28"><a xlink:href="https://godoc.org/github.com/valyala/fasthttp/stackless" xlink:title="github.com/valyala/fasthttp/stackless" target="_blank">
<path fill="paleturquoise" stroke="paleturquoise" d="M1537.5,-130C1537.5,-130 1278.5,-130 1278.5,-130 1272.5,-130 1266.5,-124 1266.5,-118 1266.5,-118 1266.5,-106 1266.5,-106 1266.5,-100 1272.5,-94 1278.5,-94 1278.5,-94 1537.5,-94 1537.5,-94 1543.5,-94 1549.5,-100 1549.5,-106 1549.5,-106 1549.5,-118 1549.5,-118 1549.5,-124 1543.5,-130 1537.5,-130"/>
<text text-anchor="middle" x="1408" y="-108.3" font-family="Times,serif" font-size="14.00">github.com/valyala/fasthttp/stackless</text>
</a>
</g>
</g>
<!-- github.com/valyala/fasthttp&#45;&gt;github.com/valyala/fasthttp/stackless -->
<g id="edge47" class="edge">
<title>github.com/valyala/fasthttp&#45;&gt;github.com/valyala/fasthttp/stackless</title>
<path fill="none" stroke="black" d="M1455,-187.88C1455,-187.88 1455,-135.07 1455,-135.07"/>
<polygon fill="black" stroke="black" points="1456.75,-135.07 1455,-130.07 1453.25,-135.07 1456.75,-135.07"/>
</g>
<!-- github.com/valyala/tcplisten -->
<g id="node29" class="node">
<title>github.com/valyala/tcplisten</title>
<g id="a_node29"><a xlink:href="https://godoc.org/github.com/valyala/tcplisten" xlink:title="github.com/valyala/tcplisten" target="_blank">
<path fill="paleturquoise" stroke="paleturquoise" d="M206,-224C206,-224 12,-224 12,-224 6,-224 0,-218 0,-212 0,-212 0,-200 0,-200 0,-194 6,-188 12,-188 12,-188 206,-188 206,-188 212,-188 218,-194 218,-200 218,-200 218,-212 218,-212 218,-218 212,-224 206,-224"/>
<text text-anchor="middle" x="109" y="-202.3" font-family="Times,serif" font-size="14.00">github.com/valyala/tcplisten</text>
</a>
</g>
</g>
<!-- github.com/valyala/fasthttp/reuseport&#45;&gt;github.com/valyala/tcplisten -->
<g id="edge49" class="edge">
<title>github.com/valyala/fasthttp/reuseport&#45;&gt;github.com/valyala/tcplisten</title>
<path fill="none" stroke="black" d="M120.25,-281.88C120.25,-281.88 120.25,-229.07 120.25,-229.07"/>
<polygon fill="black" stroke="black" points="122,-229.07 120.25,-224.07 118.5,-229.07 122,-229.07"/>
</g>
<!-- github.com/valyala/fasthttp/fasthttpadaptor&#45;&gt;github.com/valyala/fasthttp -->
<g id="edge48" class="edge">
<title>github.com/valyala/fasthttp/fasthttpadaptor&#45;&gt;github.com/valyala/fasthttp</title>
<path fill="none" stroke="black" d="M1396.75,-375.97C1396.75,-375.97 1396.75,-229.25 1396.75,-229.25"/>
<polygon fill="black" stroke="black" points="1398.5,-229.25 1396.75,-224.25 1395,-229.25 1398.5,-229.25"/>
</g>
<!-- github.com/klauspost/compress/gzip&#45;&gt;github.com/klauspost/compress/flate -->
<g id="edge38" class="edge">
<title>github.com/klauspost/compress/gzip&#45;&gt;github.com/klauspost/compress/flate</title>
<path fill="none" stroke="black" d="M2206.17,-93.88C2206.17,-93.88 2206.17,-41.07 2206.17,-41.07"/>
<polygon fill="black" stroke="black" points="2207.92,-41.07 2206.17,-36.07 2204.42,-41.07 2207.92,-41.07"/>
</g>
<!-- github.com/klauspost/compress/zlib&#45;&gt;github.com/klauspost/compress/flate -->
<g id="edge39" class="edge">
<title>github.com/klauspost/compress/zlib&#45;&gt;github.com/klauspost/compress/flate</title>
<path fill="none" stroke="black" d="M2464,-93.88C2464,-66.56 2464,-18 2464,-18 2464,-18 2304.1,-18 2304.1,-18"/>
<polygon fill="black" stroke="black" points="2304.1,-16.25 2299.1,-18 2304.1,-19.75 2304.1,-16.25"/>
</g>
<!-- github.com/valyala/fasthttp/stackless&#45;&gt;github.com/valyala/bytebufferpool -->
<g id="edge50" class="edge">
<title>github.com/valyala/fasthttp/stackless&#45;&gt;github.com/valyala/bytebufferpool</title>
<path fill="none" stroke="black" d="M1408,-93.77C1408,-67.99 1408,-24 1408,-24 1408,-24 1179.13,-24 1179.13,-24"/>
<polygon fill="black" stroke="black" points="1179.13,-22.25 1174.13,-24 1179.13,-25.75 1179.13,-22.25"/>
</g>
</g>
</svg>
